<svg version="1.2" xmlns="http://www.w3.org/2000/svg" viewBox="0 0 687 192" width="687" height="192"><style>.a{fill:#1a3f75}.b{fill:none;stroke:#1a3f75;stroke-width:12}</style><path class="a" d="m151.4 79.7q3.2-5 8.8-8.1 5.7-3 13.2-3 8.9 0 16 4.4 7.2 4.5 11.3 12.8 4.2 8.4 4.2 19.4 0 11-4.2 19.4-4.1 8.3-11.3 12.9-7.1 4.5-16 4.5-7.4 0-13.2-3-5.6-3.1-8.8-8v44h-21.9v-105.4h21.9zm31.2 25.4q0-8.1-4.6-12.8-4.4-4.7-11.1-4.7-6.5 0-11.1 4.7-4.5 4.8-4.5 13 0 8.2 4.5 12.9 4.6 4.7 11.1 4.7 6.5 0 11.1-4.7 4.6-4.9 4.6-13.1zm29.4 0q0-11 4.1-19.3 4.3-8.3 11.4-12.8 7.2-4.5 16-4.5 7.6 0 13.2 3.1 5.8 3.1 8.8 8.1v-10.1h21.9v71.4h-21.9v-10.1q-3.2 5-8.9 8-5.6 3.1-13.2 3.1-8.7 0-15.9-4.5-7.1-4.6-11.4-12.9-4.1-8.4-4.1-19.5zm53.5 0.2q0-8.2-4.6-13-4.4-4.7-11-4.7-6.5 0-11.1 4.7-4.5 4.7-4.5 12.8 0 8.2 4.5 13.1 4.6 4.7 11.1 4.7 6.6 0 11-4.7 4.6-4.7 4.6-12.9zm59.7-23.8q3.8-5.9 9.6-9.2 5.7-3.5 12.8-3.5v23.2h-6.1q-8.1 0-12.2 3.5-4.1 3.5-4.1 12.3v33.2h-21.9v-71.4h21.9zm76.5 59.5l-21.8-30v30h-21.9v-94.7h21.9v52.3l21.6-29h27.1l-29.7 35.8 29.9 35.6zm57.4-16.9h28.6v16.9h-50.5v-89.9h21.9zm140.8-72.9v89.8h-21.8v-53.9l-20.1 53.9h-17.7l-20.2-54v54h-21.9v-89.8h25.8l25.3 62.2 24.9-62.2zm48.3 90.7q-9.9 0-17.7-3.2-7.8-3.2-12.5-9.5-4.6-6.2-4.9-15.1h23.3q0.5 5 3.4 7.7 3 2.6 7.7 2.6 4.9 0 7.7-2.2 2.8-2.3 2.8-6.3 0-3.3-2.3-5.5-2.2-2.1-5.5-3.6-3.2-1.4-9.2-3.2-8.7-2.6-14.2-5.3-5.5-2.7-9.5-8-3.9-5.2-3.9-13.7 0-12.5 9-19.5 9.1-7.2 23.7-7.2 14.9 0 24 7.2 9 7 9.7 19.7h-23.7q-0.3-4.4-3.2-6.8-2.9-2.6-7.5-2.6-4 0-6.4 2.2-2.5 2-2.5 6 0 4.4 4.1 6.8 4.1 2.4 12.8 5.2 8.7 3 14.1 5.7 5.5 2.7 9.5 7.8 3.9 5.1 3.9 13.2 0 7.7-3.9 13.9-3.9 6.3-11.3 10-7.4 3.7-17.5 3.7z"/><path fill-rule="evenodd" class="b" d="m69.4 108c0 0-37.2 6.8-37.2-28.7 0-26.8 67.6-18.6 67.6-18.6l-16.9-18.6h-16.9v-13.6l-20.3-13.5v27.1h-13.5c0 0-18.6 3.3-18.6 23.6 0 23.7 18.6 20.3 18.6 20.3m22 0c0 0 37.2-3.3 37.2 25.4 0 22-32.1 22-32.1 22h-43.9l20.3 18.6h13.6v10.2l17.2 15.2v-25.4c0 0 18.6 2 24.9 0 9.8-3.1 17.5-8.4 18.6-18.6 1.7-15.2-13.5-22-13.5-22"/></svg>