<svg version="1.2" xmlns="http://www.w3.org/2000/svg" viewBox="0 0 120 192" width="63" height="100">
	<style>
		.s0 { display: none;fill: #1a3f75 } 
		.s1 { fill: none;stroke: #1a3f75;stroke-width: 12 } 
	</style>
	<path class="s0" d="m151.41 79.69q3.2-4.99 8.83-8.07 5.63-3.07 13.19-3.07 8.83 0 16 4.48 7.16 4.48 11.26 12.8 4.22 8.32 4.22 19.33 0 11.01-4.22 19.46-4.1 8.32-11.26 12.92-7.17 4.48-16 4.48-7.43 0-13.19-3.07-5.63-3.07-8.83-7.93v44.03h-21.89v-105.47h21.89zm31.23 25.47q0-8.19-4.61-12.8-4.48-4.74-11.13-4.74-6.53 0-11.14 4.74-4.48 4.73-4.48 12.93 0 8.19 4.48 12.92 4.61 4.74 11.14 4.74 6.53 0 11.13-4.74 4.61-4.86 4.61-13.05zm29.4 0q0-11.01 4.1-19.33 4.22-8.32 11.39-12.8 7.17-4.48 16-4.48 7.55 0 13.19 3.07 5.76 3.07 8.83 8.07v-10.12h21.89v71.43h-21.89v-10.11q-3.2 4.99-8.96 8.06-5.63 3.07-13.19 3.07-8.7 0-15.87-4.48-7.17-4.61-11.39-12.93-4.1-8.44-4.1-19.45zm53.51 0.13q0-8.2-4.61-12.93-4.48-4.74-11.01-4.74-6.52 0-11.13 4.74-4.48 4.61-4.48 12.8 0 8.19 4.48 13.05 4.61 4.74 11.13 4.74 6.53 0 11.01-4.74 4.61-4.73 4.61-12.92zm59.61-23.81q3.84-5.89 9.6-9.22 5.76-3.45 12.8-3.45v23.16h-6.02q-8.19 0-12.28 3.59-4.1 3.45-4.1 12.29v33.15h-21.89v-71.43h21.89zm76.51 59.52l-21.76-29.95v29.95h-21.89v-94.72h21.89v52.36l21.63-29.06h27.01l-29.7 35.84 29.96 35.58zm57.36-16.89h28.67v16.89h-50.56v-89.85h21.89zm140.87-72.96v89.85h-21.89v-53.88l-20.09 53.88h-17.67l-20.22-54.01v54.01h-21.89v-89.85h25.86l25.22 62.21 24.95-62.21zm48.26 90.75q-9.86 0-17.67-3.2-7.81-3.2-12.54-9.47-4.61-6.27-4.87-15.11h23.3q0.51 5 3.46 7.68 2.94 2.56 7.68 2.56 4.86 0 7.68-2.17 2.81-2.31 2.81-6.27 0-3.33-2.3-5.51-2.18-2.17-5.51-3.58-3.19-1.41-9.21-3.2-8.71-2.69-14.21-5.38-5.5-2.69-9.47-7.93-3.97-5.25-3.97-13.7 0-12.54 9.09-19.58 9.09-7.17 23.68-7.17 14.85 0 23.93 7.17 9.09 7.04 9.73 19.71h-23.68q-0.25-4.35-3.2-6.79-2.94-2.56-7.55-2.56-3.97 0-6.4 2.18-2.43 2.05-2.43 6.02 0 4.35 4.09 6.78 4.1 2.43 12.8 5.25 8.71 2.94 14.08 5.63 5.51 2.69 9.48 7.81 3.96 5.12 3.96 13.18 0 7.68-3.96 13.95-3.84 6.28-11.27 9.99-7.42 3.71-17.53 3.71z"/>
	<path fill-rule="evenodd" class="s1" d="m67.4 108.03c0 0-37.21 6.76-37.21-28.76 0-26.76 67.66-18.6 67.66-18.6l-16.92-18.61h-16.91v-13.53l-20.3-13.53v27.06h-13.53c0 0-18.6 3.39-18.6 23.68 0 23.68 18.6 20.3 18.6 20.3m21.99 0c0 0 37.21-3.38 37.21 25.37 0 21.99-32.14 21.99-32.14 21.99h-43.82l20.29 18.6h13.53v10.15l17.23 15.22v-25.37c0 0 18.61 1.97 24.91 0 9.81-3.06 17.48-8.39 18.61-18.6 1.67-15.22-13.54-21.99-13.54-21.99"/>
</svg>